<svg width="266" height="266" viewBox="0 0 266 266" fill="none" xmlns="http://www.w3.org/2000/svg">
<rect x="-4.48999" y="53.4855" width="224" height="224" rx="20" transform="rotate(-15 -4.48999 53.4855)" fill="#DBE4FF"/>
<rect x="20.6814" y="20.6815" width="224" height="224" rx="20" fill="#5C7CFA"/>
<path d="M20.6814 40.6815C20.6814 29.6358 29.6357 20.6815 40.6814 20.6815H158.681L120.681 244.681H40.6814C29.6357 244.681 20.6814 235.727 20.6814 224.681V40.6815Z" fill="#4263EB" fill-opacity="0.9"/>
<path d="M47.0746 163.681L57.4581 101.136H70.6818L66.4063 126.942H93.2507L97.5263 101.136H110.719L100.336 163.681H87.1428L91.4183 137.845H64.5739L60.2983 163.681H47.0746ZM117.408 112.039L119.24 101.136H170.608L168.776 112.039H149.627L141.076 163.681H128.005L136.556 112.039H117.408ZM168.684 163.681L179.067 101.136H221.212L219.38 112.039H190.459L188.016 126.942H214.768L212.936 137.845H186.183L183.74 152.779H212.783L210.951 163.681H168.684Z" fill="white"/>
</svg>
