<svg width="266" height="266" viewBox="0 0 266 266" fill="none" xmlns="http://www.w3.org/2000/svg">
<rect x="-4.48993" y="53.4855" width="224" height="224" rx="20" transform="rotate(-15 -4.48993 53.4855)" fill="#DBE4FF"/>
<rect x="20.6815" y="20.6815" width="224" height="224" rx="20" fill="#5C7CFA"/>
<path d="M20.6815 40.6815C20.6815 29.6358 29.6358 20.6815 40.6815 20.6815H162.181L113.681 244.681H40.6815C29.6358 244.681 20.6815 235.727 20.6815 224.681V40.6815Z" fill="#4263EB" fill-opacity="0.9"/>
<path d="M45.3004 173.681L62.4354 93.1815L76.0054 90.3065L69.7954 119.401C74.702 115.491 80.2604 113.536 86.4704 113.536C91.147 113.536 95.057 114.61 98.2004 116.756C101.42 118.903 103.682 121.855 104.985 125.611C106.365 129.291 106.519 133.508 105.445 138.261L97.9704 173.681H84.9754L92.2204 139.641C93.1404 135.195 92.5654 131.63 90.4954 128.946C88.502 126.186 85.397 124.806 81.1804 124.806C78.497 124.806 75.967 125.381 73.5904 126.531C71.2904 127.605 69.182 129.176 67.2654 131.246L58.2954 173.681H45.3004ZM135.665 174.601C129.455 174.601 124.932 173.106 122.095 170.116C119.335 167.05 118.569 162.756 119.795 157.236L126.465 125.726H114.275L116.69 114.571H128.765L131.985 99.5065L145.555 96.4015L141.76 114.571H158.435L156.135 125.726H139.345L133.02 154.936C132.407 158.003 132.714 160.188 133.94 161.491C135.167 162.795 137.505 163.446 140.955 163.446C142.105 163.446 143.217 163.37 144.29 163.216C145.364 163.063 146.59 162.795 147.97 162.411L145.67 173.451C144.367 173.758 142.795 174.026 140.955 174.256C139.115 174.486 137.352 174.601 135.665 174.601ZM187.936 174.831C182.263 174.831 177.203 173.643 172.756 171.266C168.31 168.89 164.821 165.593 162.291 161.376C159.761 157.083 158.496 152.253 158.496 146.886C158.496 142.363 159.301 138.108 160.911 134.121C162.598 130.058 164.898 126.493 167.811 123.426C170.801 120.36 174.175 117.983 177.931 116.296C181.765 114.533 185.866 113.651 190.236 113.651C195.296 113.651 199.781 114.878 203.691 117.331C207.678 119.785 210.783 123.12 213.006 127.336C215.306 131.553 216.456 136.421 216.456 141.941C216.456 142.708 216.418 143.59 216.341 144.586C216.265 145.583 216.111 146.848 215.881 148.381H171.491C171.798 151.371 172.718 154.016 174.251 156.316C175.861 158.616 177.931 160.456 180.461 161.836C182.991 163.14 185.79 163.791 188.856 163.791C191.54 163.791 194.07 163.408 196.446 162.641C198.823 161.798 200.931 160.686 202.771 159.306L209.901 167.816C206.451 170.27 202.963 172.071 199.436 173.221C195.986 174.295 192.153 174.831 187.936 174.831ZM172.411 138.836H204.151C203.768 136 202.886 133.546 201.506 131.476C200.203 129.406 198.516 127.796 196.446 126.646C194.376 125.42 192.038 124.806 189.431 124.806C186.825 124.806 184.371 125.42 182.071 126.646C179.771 127.796 177.778 129.445 176.091 131.591C174.481 133.661 173.255 136.076 172.411 138.836Z" fill="white"/>
</svg>
